<svg viewBox="0 0 200 220" fill="none" xmlns="http://www.w3.org/2000/svg">
  <path d="M100 10L30 40V110C30 155 100 200 100 200C100 200 170 155 170 110V40L100 10Z" fill="#0f2444"/>
  <path d="M100 10L170 40V110C170 125 160 140 150 152L100 85V10Z" fill="#c9973a" opacity="0.8"/>
  <path d="M135 75C128 65 115 60 100 60C75 60 55 80 55 110C55 140 75 160 100 160C115 160 128 155 135 145" stroke="white" stroke-width="12" stroke-linecap="round"/>
  <path d="M80 115C80 105 89 98 100 98C111 98 120 105 120 115V135H80V115Z" fill="white"/>
  <rect x="85" y="135" width="4" height="10" fill="white"/>
  <rect x="98" y="135" width="4" height="10" fill="white"/>
  <rect x="111" y="135" width="4" height="10" fill="white"/>
</svg>
